<svg width="141" height="40" viewBox="0 0 141 40" fill="none" xmlns="http://www.w3.org/2000/svg">
<path d="M76.0398 25.8501C76.0398 30.1961 70.6314 29.9384 70.6314 29.9384H65.2231V22.0836H70.6314C76.2008 22.0515 76.0398 25.8501 76.0398 25.8501ZM65.2231 10.108H69.3439C73.6253 10.3336 73.4642 13.5203 73.4642 13.5203C73.4642 17.48 68.7319 17.5445 68.7319 17.5445H65.2231V10.108ZM75.0419 19.0897C75.0419 19.0897 78.7439 17.5124 78.7119 13.3271C78.7119 13.3271 79.2747 6.47053 70.1887 5.6334H60.1045V34.381H71.6617C71.6617 34.381 81.3194 34.4134 81.3194 26.2685C81.3194 26.2685 81.5447 20.7315 75.0419 19.0897ZM48.9487 0H91.3955V40H48.9487V0Z" fill="#627D98"/>
<path d="M27.0911 25.8501C27.0911 30.1961 21.6828 29.9384 21.6828 29.9384H16.2744V22.0836H21.6828C27.2522 22.0515 27.0911 25.8501 27.0911 25.8501ZM16.2744 10.108H20.3952C24.6767 10.3336 24.5156 13.5203 24.5156 13.5203C24.5156 17.48 19.7833 17.5445 19.7833 17.5445H16.2744V10.108ZM26.0933 19.0897C26.0933 19.0897 29.7953 17.5124 29.7632 13.3271C29.7632 13.3271 30.326 6.47053 21.2401 5.6334H11.1558V34.381H22.713C22.713 34.381 32.3708 34.4134 32.3708 26.2685C32.3708 26.2685 32.596 20.7315 26.0933 19.0897ZM0 0H42.4469V40H0V0Z" fill="#627D98"/>
<path d="M131.684 7.69412V13.0059C131.684 13.0059 126.501 9.81882 120.771 9.75431C120.771 9.75431 110.083 9.5457 109.601 20C109.601 20 109.214 29.6172 120.642 30.1646C120.642 30.1646 125.439 30.744 131.942 26.5912V32.0961C131.942 32.0961 123.218 37.2788 113.109 33.2871C113.109 33.2871 104.611 30.1812 104.288 20C104.288 20 103.934 9.52909 115.266 6.05231C115.266 6.05231 118.293 4.89338 123.733 5.40833C123.733 5.40833 126.984 5.73051 131.684 7.69412ZM97.8973 40H140.344V0H97.8973V40Z" fill="#627D98"/>
</svg>
