<svg width="181" height="32" viewBox="0 0 181 32" fill="none" xmlns="http://www.w3.org/2000/svg">
<g id="Heineken_logo 3" clip-path="url(#clip0_1848_37423)">
<g id="layer1">
<path id="path4051" d="M17.5648 0.0273438L21.249 11.2379H21.3542L17.67 0.0273438H17.5648ZM33.6437 12.7379L33.5384 12.8168L24.0121 19.7642L27.6437 31.0273L27.67 31.1063L27.749 31.0537L24.1437 19.7905L33.67 12.8168L33.6437 12.7379ZM16.7753 25.0537L7.22266 31.9484L7.3016 32.001L16.8279 25.08L16.7753 25.0537Z" fill="black"/>
<path id="path50" d="M71.1863 16.9007C71.1863 17.9829 70.7189 18.305 68.9652 18.9176C67.561 19.445 66.48 19.6787 66.1579 19.6787C65.5726 19.6787 65.3105 19.2397 65.3105 18.3334C65.3105 16.1702 65.9231 13.5387 68.2042 13.5387C70.3094 13.5387 71.1863 15.8197 71.1863 16.9007ZM48.3789 26.345C48.3789 26.1692 48.3516 26.0534 48.2642 25.965C48.0294 25.7302 47.1526 25.585 46.7137 25.146C46.3937 24.8239 46.1873 24.2692 46.1873 22.9829V18.0408C46.1873 17.6597 46.2758 17.4271 46.6558 17.4271H51.6852C52.0652 17.4271 52.1526 17.6597 52.1526 18.0408V22.9829C52.1526 24.2692 51.9484 24.8239 51.6263 25.146C51.1873 25.585 50.3105 25.7302 50.0768 25.965C49.9884 26.0534 49.96 26.1692 49.96 26.345C49.96 27.1039 50.0768 27.866 50.1937 27.9818C50.3105 28.0997 50.4863 28.1281 50.8663 28.1281H59.0821C59.4621 28.1281 59.6368 28.0997 59.7547 27.9818C59.8715 27.866 59.9894 27.1039 59.9894 26.345C59.9894 26.1692 59.959 26.0534 59.8716 25.965C59.6673 25.7608 58.76 25.585 58.321 25.146C58.001 24.8239 57.8252 24.2102 57.8252 23.2155V9.56181C57.8252 8.86075 58.001 8.39127 58.2631 8.13022C58.7316 7.6618 59.6673 7.57338 59.8716 7.36811C59.9589 7.28074 59.9894 7.10602 59.9894 6.9597C59.9894 6.43339 59.8715 5.6439 59.7547 5.52706C59.6368 5.41022 59.521 5.3797 59.0821 5.3797H51.1579C50.8368 5.3797 50.72 5.41017 50.6326 5.49864C50.5452 5.58601 50.4568 6.19971 50.4568 6.98918C50.4568 7.13444 50.4863 7.31022 50.5452 7.36811C50.6905 7.51548 51.4221 7.74918 51.7147 8.04181C52.0358 8.36392 52.1526 8.71443 52.1526 9.70811V13.5966C52.1526 13.7429 52.0063 13.9471 51.8021 13.9471H46.5389C46.3336 13.9471 46.1873 13.7429 46.1873 13.5966V9.70811C46.1873 8.71443 46.3042 8.36392 46.6263 8.04181C46.9189 7.74918 47.6495 7.51548 47.7958 7.36811C47.8547 7.31018 47.8842 7.13444 47.8842 6.98918C47.8842 6.19971 47.7958 5.58601 47.7084 5.49864C47.621 5.41022 47.5031 5.3797 47.1821 5.3797H39.2589C38.82 5.3797 38.7031 5.41018 38.5852 5.52706C38.4695 5.6439 38.3516 6.43339 38.3516 6.9597C38.3516 7.10602 38.381 7.28074 38.4694 7.36811C38.6737 7.57338 39.6094 7.6618 40.0768 8.13022C40.34 8.39127 40.5158 8.86075 40.5158 9.56181V23.2155C40.5158 24.2102 40.34 24.8239 40.0189 25.146C39.58 25.585 38.6737 25.7608 38.4694 25.965C38.381 26.0534 38.3516 26.1692 38.3516 26.345C38.3516 27.1039 38.4695 27.866 38.5852 27.9818C38.7031 28.0997 38.82 28.1281 39.2589 28.1281H47.4747C47.8547 28.1281 48.0294 28.0997 48.1473 27.9818C48.2642 27.866 48.3789 27.1039 48.3789 26.345ZM75.5431 25.9355C76.3905 25.0881 76.5968 24.5902 76.5968 24.1807C76.5968 23.7418 76.4789 23.3913 76.1284 23.0408C75.7473 22.6608 75.4273 22.6018 75.1337 22.6018C74.7242 22.6018 74.5484 22.7186 74.2863 22.9829C73 24.2692 71.3621 24.9702 69.3737 24.9702C67.3568 24.9702 66.0989 23.626 66.0989 22.7765C66.0989 22.5439 66.3042 22.3386 66.8294 22.1923C72.4442 20.4376 74.7831 19.2692 75.66 18.3913C76.1568 17.9239 76.361 17.3681 76.361 16.8713C76.361 14.6492 73.1463 10.7029 68.2042 10.7029C66.1579 10.7029 64.0821 11.5197 62.5326 13.0702C60.9831 14.6208 60.0179 16.8123 60.0179 19.7955C60.0179 22.6607 60.9242 24.6492 62.5031 26.2281C64.0821 27.8071 66.3621 28.5965 68.8484 28.5965C71.3916 28.5965 73.7894 27.6902 75.5431 25.9355ZM84.6947 11.6955C84.6947 11.3165 84.4894 11.1692 84.1684 11.1692H78.5252C78.2031 11.1692 78.0873 11.1692 77.9979 11.2871C77.8821 11.4039 77.7663 12.1934 77.7663 12.7208C77.7663 12.866 77.8242 12.9818 77.8821 13.0702C78.0873 13.3334 78.5252 13.4207 78.9063 13.7429C79.1684 14.006 79.2863 14.5618 79.2863 15.4092V23.2155C79.2863 24.2102 79.1684 24.8534 78.8758 25.146C78.4368 25.585 77.7063 25.7892 77.5021 25.9934C77.4441 26.0534 77.4147 26.1692 77.4147 26.3744C77.4147 27.1344 77.5315 27.866 77.6484 27.9818C77.7368 28.0692 77.8821 28.1281 78.2031 28.1281H85.7189C86.04 28.1281 86.1863 28.0692 86.2736 27.9818C86.3905 27.866 86.4779 27.1344 86.4779 26.3744C86.4779 26.1692 86.4495 26.0534 86.3905 25.9934C86.1863 25.7892 85.5137 25.585 85.0747 25.146C84.7831 24.8534 84.6947 24.2102 84.6947 23.2155V11.6955ZM81.5663 4.32812C79.9589 4.32812 78.6421 5.58601 78.6421 7.16496C78.6421 8.77233 79.9589 10.0302 81.5663 10.0302C83.2042 10.0302 84.52 8.77233 84.52 7.16496C84.52 5.58601 83.2042 4.32812 81.5663 4.32812ZM104.226 15.7018C104.226 12.4271 102.531 10.7607 99.8695 10.7607C98.6116 10.7607 97.2673 11.1692 95.9221 11.9892C95.4547 12.2818 95.3084 12.3692 95.1916 12.3692C94.7231 12.3692 95.0452 11.1692 94.1968 11.1692H89.0516C88.7295 11.1692 88.6421 11.1692 88.5252 11.2871C88.3789 11.4334 88.2621 12.1934 88.2621 12.7208C88.2621 12.866 88.2915 12.9818 88.3789 13.0702C88.6126 13.305 89.0516 13.3923 89.4021 13.7429C89.6663 14.006 89.781 14.5618 89.781 15.4092V23.2155C89.781 24.2102 89.6937 24.8534 89.4021 25.146C88.9926 25.5544 88.2916 25.7892 88.0863 25.9934C88.0285 26.0534 87.9979 26.1692 87.9979 26.3744C87.9979 27.1344 88.0863 27.866 88.2042 27.9818C88.2915 28.0692 88.4663 28.1281 88.7884 28.1281H96.1568C96.5073 28.1281 96.6231 28.0692 96.7105 27.9818C96.8579 27.8355 96.9758 27.1344 96.9758 26.3744C96.9758 26.1692 96.9453 26.0534 96.8863 25.9934C96.6537 25.7608 95.981 25.5544 95.5716 25.146C95.2789 24.8534 95.1337 24.2102 95.1337 23.2155V17.4565C95.1337 15.0881 96.4473 14.3576 97.4137 14.3576C98.4073 14.3576 98.9631 15.0881 98.9631 16.6365V24.7376C98.9631 26.9007 100.338 28.3323 102.823 28.3323C105.571 28.3323 106.74 26.345 106.74 25.9355C106.74 25.585 106.185 24.8829 105.835 24.8829C105.424 24.8829 104.84 25.4092 104.547 25.4092C104.343 25.4092 104.226 25.2629 104.226 24.7955V15.7018ZM158.405 25.9355C159.253 25.0881 159.457 24.5902 159.457 24.1807C159.457 23.7418 159.341 23.3913 158.991 23.0408C158.609 22.6608 158.286 22.6018 157.996 22.6018C157.586 22.6018 157.41 22.7186 157.147 22.9829C155.861 24.2692 154.224 24.9702 152.236 24.9702C150.219 24.9702 148.961 23.626 148.961 22.7765C148.961 22.5439 149.165 22.3386 149.692 22.1923C155.305 20.4376 157.644 19.2692 158.522 18.3913C159.019 17.9239 159.223 17.3681 159.223 16.8713C159.223 14.6492 156.007 10.7029 151.066 10.7029C149.018 10.7029 146.943 11.5197 145.393 13.0702C143.844 14.6208 142.879 16.8123 142.879 19.7955C142.879 22.6607 143.785 24.6492 145.364 26.2281C146.943 27.8071 149.224 28.5965 151.708 28.5965C154.253 28.5965 156.652 27.6902 158.405 25.9355ZM154.048 16.9007C154.048 17.9829 153.581 18.305 151.826 18.9176C150.423 19.445 149.341 19.6787 149.018 19.6787C148.435 19.6787 148.171 19.2397 148.171 18.3334C148.171 16.1702 148.785 13.5387 151.066 13.5387C153.17 13.5387 154.048 15.8197 154.048 16.9007ZM122.471 25.9355C123.318 25.0881 123.524 24.5902 123.524 24.1807C123.524 23.7418 123.406 23.3913 123.056 23.0408C122.676 22.6608 122.355 22.6018 122.062 22.6018C121.651 22.6018 121.477 22.7186 121.214 22.9829C119.927 24.2692 118.289 24.9702 116.301 24.9702C114.284 24.9702 113.026 23.626 113.026 22.7765C113.026 22.5439 113.232 22.3386 113.758 22.1923C119.372 20.4376 121.711 19.2692 122.587 18.3913C123.085 17.9239 123.289 17.3681 123.289 16.8713C123.289 14.6492 120.074 10.7029 115.132 10.7029C113.085 10.7029 111.009 11.5197 109.46 13.0702C107.91 14.6208 106.945 16.8123 106.945 19.7955C106.945 22.6607 107.852 24.6492 109.429 26.2281C111.009 27.8071 113.29 28.5965 115.776 28.5965C118.319 28.5965 120.717 27.6902 122.471 25.9355ZM118.115 16.9007C118.115 17.9829 117.646 18.305 115.893 18.9176C114.488 19.445 113.407 19.6787 113.085 19.6787C112.5 19.6787 112.238 19.2397 112.238 18.3334C112.238 16.1702 112.852 13.5387 115.132 13.5387C117.237 13.5387 118.115 15.8197 118.115 16.9007ZM176.648 15.7018C176.648 12.4271 174.954 10.7607 172.294 10.7607C171.036 10.7607 169.691 11.1692 168.346 11.9892C167.878 12.2818 167.731 12.3692 167.616 12.3692C167.147 12.3692 167.468 11.1692 166.621 11.1692H161.476C161.154 11.1692 161.065 11.1692 160.948 11.2871C160.802 11.4334 160.685 12.1934 160.685 12.7208C160.685 12.866 160.715 12.9818 160.802 13.0702C161.037 13.305 161.476 13.3923 161.826 13.7429C162.088 14.006 162.206 14.5618 162.206 15.4092V23.2155C162.206 24.2102 162.118 24.8534 161.826 25.146C161.416 25.5544 160.715 25.7892 160.511 25.9934C160.452 26.0534 160.422 26.1692 160.422 26.3744C160.422 27.1344 160.511 27.866 160.625 27.9818C160.715 28.0692 160.89 28.1281 161.212 28.1281H168.579C168.931 28.1281 169.047 28.0692 169.136 27.9818C169.282 27.8355 169.398 27.1344 169.398 26.3744C169.398 26.1692 169.37 26.0534 169.311 25.9934C169.077 25.7608 168.404 25.5544 167.995 25.146C167.702 24.8534 167.555 24.2102 167.555 23.2155V17.4565C167.555 15.0881 168.872 14.3576 169.837 14.3576C170.832 14.3576 171.386 15.0881 171.386 16.6365V24.7376C171.386 26.9007 172.761 28.3323 175.246 28.3323C177.995 28.3323 179.164 26.345 179.164 25.9355C179.164 25.585 178.608 24.8829 178.258 24.8829C177.848 24.8829 177.264 25.4092 176.972 25.4092C176.766 25.4092 176.648 25.2629 176.648 24.7955V15.7018ZM130.744 4.85444H125.132C124.78 4.85444 124.634 4.85443 124.547 5.0018C124.429 5.14706 124.341 5.87865 124.341 6.37549C124.341 6.55023 124.372 6.66708 124.429 6.78392C124.634 6.98919 125.424 7.19339 125.775 7.54497C126.066 7.8376 126.214 8.42181 126.214 10.6429V22.3386C126.214 24.2986 126.009 24.9123 125.775 25.146C125.365 25.5544 124.664 25.7892 124.459 25.9934C124.401 26.0534 124.372 26.1692 124.372 26.3744C124.372 27.1344 124.459 27.866 124.576 27.9818C124.664 28.0692 124.78 28.1281 125.161 28.1281H132.5C132.88 28.1281 132.996 28.0692 133.084 27.9818C133.201 27.866 133.347 27.1344 133.347 26.3744C133.347 26.1692 133.319 26.0534 133.23 25.9934C133.026 25.7892 132.324 25.5544 131.943 25.146C131.623 24.8534 131.505 24.2102 131.505 23.2155V22.5439C131.505 22.1639 131.623 22.046 132.266 21.4029C132.558 21.1408 132.82 20.9365 133.026 20.9365C133.319 20.9365 133.552 21.1407 136.768 27.6313C136.973 28.0407 137.06 28.1281 137.586 28.1281H142.352C142.703 28.1281 142.821 28.0692 142.908 27.9818C143.025 27.866 143.142 27.1344 143.142 26.3744C143.142 26.1692 143.114 26.0534 143.054 25.9934C142.849 25.7892 141.622 25.6429 141.359 25.146C137.12 17.9829 137.002 17.7481 137.002 17.3102C137.002 16.9302 138.874 15.0597 140.423 13.8313C141.418 13.0418 142.06 13.5671 142.06 12.6323C142.06 11.5502 141.915 11.1692 141.709 11.1692H134.635C134.02 11.1692 133.962 11.5197 133.962 12.8366C133.962 13.2744 135.189 13.3334 135.189 13.9471C135.189 14.4734 132.207 17.3397 131.711 17.3397C131.535 17.3397 131.505 17.2229 131.505 16.725V5.67339C131.505 5.20497 131.183 4.85444 130.744 4.85444Z" fill="#00A650"/>
<path id="path3239" d="M16.7528 0.269531L20.6342 12.074L33.0603 12.1176L23.033 19.4568L26.8314 31.2882L16.7528 24.0196L6.67423 31.2882L10.4726 19.4568L0.445312 12.1176L12.8714 12.074L16.7528 0.269531Z" fill="#FF0000"/>
<path id="path4083" d="M176.66 4.23828C177.151 4.23829 177.623 4.36177 178.074 4.60876C178.526 4.85327 178.88 5.20506 179.137 5.66411C179.397 6.12319 179.526 6.60346 179.526 7.10493C179.526 7.60392 179.399 8.08044 179.145 8.53451C178.893 8.98609 178.54 9.33913 178.085 9.59362C177.634 9.8456 177.159 9.9716 176.66 9.9716C176.161 9.9716 175.684 9.8456 175.23 9.59362C174.778 9.33913 174.425 8.98609 174.171 8.53451C173.919 8.08044 173.793 7.60392 173.793 7.10493C173.793 6.60346 173.921 6.12319 174.178 5.66411C174.438 5.20506 174.793 4.85327 175.245 4.60876C175.697 4.36177 176.168 4.23829 176.66 4.23828ZM176.664 4.79962C176.27 4.79962 175.892 4.89818 175.53 5.09527C175.168 5.29237 174.882 5.57555 174.673 5.9448C174.466 6.31405 174.362 6.70075 174.362 7.10493C174.362 7.50661 174.463 7.88959 174.665 8.25386C174.87 8.61811 175.154 8.90253 175.519 9.10711C175.883 9.3117 176.265 9.41399 176.664 9.41399C177.066 9.41399 177.447 9.3117 177.809 9.10711C178.173 8.90253 178.458 8.61811 178.662 8.25386C178.867 7.88959 178.969 7.50661 178.969 7.10493C178.969 6.70075 178.864 6.31405 178.655 5.9448C178.448 5.57555 178.162 5.29237 177.798 5.09527C177.436 4.89818 177.058 4.79962 176.664 4.79962ZM175.365 8.63931V5.59676H175.983C176.562 5.59676 176.886 5.59929 176.956 5.60434C177.16 5.62185 177.319 5.66302 177.431 5.72782C177.546 5.79022 177.641 5.8875 177.715 6.01974C177.793 6.14947 177.831 6.29417 177.831 6.45384C177.831 6.6734 177.759 6.86177 177.614 7.01894C177.472 7.17363 177.271 7.26969 177.012 7.3071C177.104 7.34205 177.175 7.38072 177.225 7.42313C177.275 7.46305 177.344 7.5404 177.431 7.65517C177.453 7.68507 177.528 7.80859 177.656 8.02565L178.015 8.63942H177.251L176.997 8.14541C176.825 7.81358 176.683 7.60526 176.57 7.52043C176.458 7.43311 176.316 7.38944 176.144 7.38944H175.983V8.63942L175.365 8.63931ZM175.983 6.91041H176.234C176.59 6.91042 176.811 6.8967 176.896 6.86924C176.983 6.84179 177.052 6.79437 177.102 6.72703C177.152 6.65713 177.177 6.57859 177.177 6.49126C177.177 6.40644 177.152 6.3316 177.102 6.26673C177.054 6.19936 176.986 6.15196 176.896 6.12451C176.806 6.09462 176.585 6.07954 176.234 6.07954H175.983V6.91041Z" fill="#00A650"/>
</g>
</g>
<defs>
<clipPath id="clip0_1848_37423">
<rect width="180.211" height="32" fill="white" transform="translate(0.449219)"/>
</clipPath>
</defs>
</svg>
