<svg width="192" height="40" viewBox="0 0 192 40" fill="none" xmlns="http://www.w3.org/2000/svg">
<g clip-path="url(#clip0_43_1142)">
<path d="M8.04755 10.8984C7.40291 10.9091 6.77928 10.6706 6.3082 10.2331C5.83712 9.79564 5.55542 9.19341 5.52253 8.55347C5.48964 7.91352 5.70812 7.2859 6.1319 6.80299C6.55568 6.32008 7.15161 6.01964 7.79399 5.96505C11.8215 5.54804 15.5659 3.71279 18.3506 0.79105C18.5752 0.555327 18.8444 0.365885 19.1427 0.233538C19.4409 0.101192 19.7625 0.0285333 20.0891 0.0197117C20.4156 0.0108901 20.7407 0.0660759 21.0458 0.182122C21.3509 0.298168 21.63 0.472799 21.8671 0.696046C22.1043 0.919293 22.2949 1.18678 22.4281 1.48325C22.5612 1.77971 22.6344 2.09933 22.6432 2.42387C22.6521 2.74841 22.5966 3.07151 22.4798 3.37472C22.3631 3.67794 22.1873 3.95533 21.9627 4.19105C18.3616 7.97263 13.5177 10.3483 8.30713 10.8884C8.22085 10.8963 8.13419 10.8997 8.04755 10.8984Z" fill="url(#paint0_radial_43_1142)"/>
<path d="M32.2366 29.1392C32.8813 29.1285 33.5049 29.367 33.976 29.8045C34.4471 30.242 34.7288 30.8442 34.7617 31.4841C34.7945 32.1241 34.5761 32.7517 34.1523 33.2346C33.7285 33.7175 33.1326 34.018 32.4902 34.0725C28.4627 34.4896 24.7182 36.3248 21.9336 39.2465C21.7089 39.4823 21.4398 39.6717 21.1415 39.8041C20.8432 39.9364 20.5216 40.0091 20.1951 40.0179C19.8686 40.0267 19.5435 39.9715 19.2384 39.8555C18.9333 39.7394 18.6542 39.5648 18.417 39.3415C18.1799 39.1183 17.9893 38.8508 17.8561 38.5544C17.7229 38.2579 17.6498 37.9383 17.641 37.6137C17.6321 37.2892 17.6876 36.9661 17.8044 36.6629C17.9211 36.3597 18.0968 36.0823 18.3215 35.8465C21.9225 32.065 26.7665 29.6893 31.977 29.1492C32.0633 29.1413 32.15 29.1379 32.2366 29.1392Z" fill="url(#paint1_radial_43_1142)"/>
<path d="M29.3185 7.99813C29.3077 7.35745 29.5477 6.73763 29.9879 6.26943C30.4281 5.80123 31.034 5.52126 31.6779 5.48857C32.3218 5.45588 32.9533 5.67303 33.4392 6.09422C33.925 6.5154 34.2273 7.10768 34.2823 7.74613C34.7018 11.7489 36.5484 15.4705 39.4881 18.2381C39.7253 18.4614 39.9159 18.7289 40.0491 19.0253C40.1822 19.3218 40.2553 19.6414 40.2642 19.966C40.2731 20.2905 40.2176 20.6136 40.1008 20.9168C39.984 21.22 39.8083 21.4974 39.5837 21.7331C39.3591 21.9689 39.09 22.1583 38.7917 22.2906C38.4934 22.423 38.1718 22.4957 37.8453 22.5045C37.5187 22.5133 37.1936 22.4581 36.8885 22.3421C36.5835 22.226 36.3044 22.0514 36.0672 21.8281C32.2623 18.2491 29.872 13.4348 29.3286 8.25613C29.3206 8.17037 29.3173 8.08425 29.3185 7.99813Z" fill="url(#paint2_radial_43_1142)"/>
<path d="M10.9654 32.0392C10.9762 32.6799 10.7362 33.2997 10.296 33.7679C9.85586 34.2361 9.24992 34.5161 8.60603 34.5488C7.96215 34.5815 7.33066 34.3643 6.84477 33.9431C6.35889 33.522 6.0566 32.9297 6.00167 32.2912C5.58209 28.2884 3.73555 24.5668 0.795807 21.7992C0.558633 21.576 0.368024 21.3085 0.234863 21.012C0.101701 20.7156 0.0285951 20.3959 0.0197192 20.0714C0.0108434 19.7469 0.0663691 19.4238 0.18313 19.1205C0.299891 18.8173 0.475597 18.5399 0.70022 18.3042C0.924842 18.0685 1.19398 17.879 1.49227 17.7467C1.79055 17.6144 2.11215 17.5417 2.43869 17.5329C2.76522 17.5241 3.09032 17.5792 3.3954 17.6953C3.70048 17.8113 3.97957 17.986 4.21675 18.2092C8.02162 21.7883 10.412 26.6026 10.9553 31.7812C10.9633 31.867 10.9667 31.9531 10.9654 32.0392Z" fill="url(#paint3_radial_43_1142)"/>
<path d="M18.0786 5.06993C17.6151 4.62449 17.3438 4.01755 17.322 3.37714C17.3001 2.73673 17.5294 2.11292 17.9615 1.6373C18.3935 1.16167 18.9945 0.871424 19.6377 0.827776C20.281 0.784129 20.9161 0.990496 21.4092 1.40334C24.5537 3.93888 28.5072 5.27271 32.5549 5.16374C32.8815 5.15492 33.2066 5.21011 33.5116 5.32615C33.8167 5.4422 34.0958 5.61683 34.333 5.84008C34.5702 6.06333 34.7608 6.33081 34.8939 6.62727C35.0271 6.92374 35.1002 7.24336 35.1091 7.5679C35.118 7.89244 35.0624 8.21554 34.9457 8.51876C34.8289 8.82197 34.6532 9.09935 34.4286 9.33508C34.204 9.5708 33.9348 9.76024 33.6365 9.89259C33.3383 10.0249 33.0167 10.0976 32.6901 10.1064C27.4533 10.2496 22.3379 8.52527 18.2693 5.24529C18.2026 5.19027 18.1389 5.13173 18.0786 5.06993Z" fill="url(#paint4_radial_43_1142)"/>
<path d="M22.2053 34.9677C22.6688 35.4131 22.9401 36.02 22.9619 36.6605C22.9838 37.3009 22.7545 37.9247 22.3225 38.4003C21.8904 38.8759 21.2894 39.1662 20.6462 39.2098C20.003 39.2535 19.3678 39.0471 18.8748 38.6343C15.7302 36.0987 11.7768 34.7649 7.729 34.8739C7.40246 34.8827 7.07737 34.8275 6.77229 34.7114C6.46721 34.5954 6.18811 34.4208 5.95094 34.1975C5.71376 33.9743 5.52315 33.7068 5.38999 33.4103C5.25683 33.1139 5.18372 32.7942 5.17484 32.4697C5.16597 32.1452 5.2215 31.8221 5.33826 31.5188C5.45502 31.2156 5.63073 30.9382 5.85535 30.7025C6.07997 30.4668 6.34911 30.2774 6.6474 30.145C6.94568 30.0127 7.26728 29.94 7.59382 29.9312C12.8306 29.788 17.9461 31.5123 22.0147 34.7923C22.0813 34.8473 22.145 34.9059 22.2053 34.9677Z" fill="url(#paint5_radial_43_1142)"/>
<path d="M35.183 17.9681C35.6312 17.5074 36.2419 17.2378 36.8862 17.2161C37.5306 17.1944 38.1582 17.4222 38.6368 17.8516C39.1154 18.281 39.4074 18.8784 39.4513 19.5177C39.4952 20.157 39.2876 20.7882 38.8722 21.2783C36.321 24.4035 34.979 28.3328 35.0886 32.3558C35.0975 32.6803 35.042 33.0034 34.9252 33.3066C34.8085 33.6099 34.6328 33.8872 34.4081 34.123C34.1835 34.3587 33.9144 34.5481 33.6161 34.6805C33.3178 34.8128 32.9962 34.8855 32.6697 34.8943C32.3431 34.9031 32.018 34.8479 31.713 34.7319C31.4079 34.6158 31.1288 34.4412 30.8916 34.218C30.6544 33.9947 30.4638 33.7272 30.3307 33.4308C30.1975 33.1343 30.1244 32.8147 30.1155 32.4901C29.9714 27.2854 31.7064 22.2013 35.0066 18.1576C35.0619 18.0913 35.1208 18.028 35.183 17.9681Z" fill="url(#paint6_radial_43_1142)"/>
<path d="M5.10115 22.0695C4.65297 22.5302 4.0423 22.7998 3.39794 22.8215C2.75359 22.8432 2.12593 22.6154 1.64738 22.186C1.16883 21.7566 0.876788 21.1592 0.832872 20.5199C0.788956 19.8806 0.996595 19.2494 1.41199 18.7593C3.96314 15.6341 5.30519 11.7048 5.19554 7.68181C5.18667 7.35727 5.2422 7.03417 5.35896 6.73095C5.47572 6.42774 5.65143 6.15035 5.87605 5.91463C6.10067 5.67891 6.36981 5.48947 6.66809 5.35712C6.96638 5.22477 7.28797 5.15211 7.61451 5.14329C7.94105 5.13447 8.26614 5.18966 8.57122 5.3057C8.8763 5.42175 9.1554 5.59638 9.39257 5.81963C9.62975 6.04288 9.82036 6.31037 9.95352 6.60683C10.0867 6.90329 10.1598 7.22292 10.1687 7.54746C10.3128 12.7522 8.57777 17.8363 5.27759 21.88C5.22223 21.9463 5.16334 22.0096 5.10115 22.0695Z" fill="url(#paint7_radial_43_1142)"/>
</g>
<path d="M48 23.0588L50.8371 22.4162C51.1135 24.3154 52.4415 25.266 54.506 25.266C56.5705 25.266 57.6818 24.3774 57.6818 23.0288C57.6818 19.1671 48.5245 22.2289 48.5245 15.8294C48.5245 13.1003 50.9002 11.1704 54.4154 11.1704C57.3431 11.1704 59.9039 12.7336 60.3962 15.6147L57.7134 16.3807C57.4343 14.7561 56.1392 13.8675 54.3209 13.8675C52.5636 13.8675 51.4535 14.6948 51.4535 15.8594C51.4535 19.3531 60.7665 16.2593 60.7665 22.7855C60.7665 25.8812 58.2352 27.9651 54.3812 27.9651C50.8371 27.9644 48.4018 26.1546 48 23.0588Z" fill="#0F141E"/>
<path d="M82.0928 11.5657H85.1459V13.6509H85.392C86.0701 12.3016 87.6725 11.1677 90.02 11.1677C93.6607 11.1677 95.9103 13.8648 95.9103 17.3006V27.5664H92.8571V17.8179C92.8571 15.5514 91.1924 14.0182 89.1561 14.0182C86.9065 14.0182 85.1486 15.7647 85.1486 18.0945V27.5644H82.0955L82.0928 11.5657Z" fill="#0F141E"/>
<path d="M114.087 7H117.14V13.6508H117.386C118.063 12.3316 119.733 11.1677 122.043 11.1677C125.681 11.1677 128.024 13.8648 128.024 17.3005V27.5664H124.971V17.8178C124.971 15.5513 123.246 14.0181 121.18 14.0181C118.99 14.0181 117.14 15.674 117.14 17.9411V27.5644H114.087V7Z" fill="#0F141E"/>
<path d="M131.645 19.5964C131.645 14.5388 135.253 11.1677 139.569 11.1677C144.473 11.1677 147.34 14.6341 147.34 19.4117V20.365H134.788C134.821 23.4907 136.734 25.3299 139.722 25.3299C141.729 25.3299 143.612 24.2267 144.164 22.2342L147.032 22.9388C146.045 26.0959 143.237 27.9651 139.721 27.9651C134.821 27.9644 131.645 24.498 131.645 19.5964ZM144.225 18.0632C144.071 15.3354 142.005 13.8335 139.569 13.8335C137.101 13.8335 135.037 15.6114 134.821 18.0632H144.225Z" fill="#0F141E"/>
<path d="M150.278 23.0588L153.116 22.4162C153.392 24.3154 154.72 25.266 156.784 25.266C158.848 25.266 159.961 24.3774 159.961 23.0288C159.961 19.1671 150.803 22.2289 150.803 15.8294C150.803 13.1003 153.178 11.1704 156.694 11.1704C159.621 11.1704 162.183 12.7336 162.674 15.6147L159.991 16.3807C159.713 14.7561 158.417 13.8675 156.6 13.8675C154.842 13.8675 153.732 14.6948 153.732 15.8594C153.732 19.3531 163.045 16.2593 163.045 22.7855C163.045 25.8812 160.514 27.9651 156.66 27.9651C153.116 27.9644 150.68 26.1546 150.278 23.0588Z" fill="#0F141E"/>
<path d="M173.488 19.5651C173.488 14.7535 176.602 11.1658 181.043 11.1658C184.157 11.1658 185.636 13.005 186.253 13.8629H186.5V11.5657H189.553V24.0707C189.553 24.5607 189.862 24.804 190.358 24.804H191.095V27.5645H188.905C187.58 27.5645 186.563 26.7372 186.563 25.358H186.347C185.792 26.1246 184.436 27.9624 181.227 27.9624C176.756 27.9644 173.488 24.4387 173.488 19.5651ZM186.592 19.5964C186.592 16.04 184.312 13.9875 181.566 13.9875C178.698 13.9875 176.572 16.3207 176.572 19.5964C176.572 22.9675 178.791 25.1733 181.598 25.1733C184.649 25.1733 186.592 22.6315 186.592 19.5964Z" fill="#0F141E"/>
<path d="M167.174 12.4243V27.5644H170.228V11.1677L167.174 12.4243Z" fill="#0F141E"/>
<path d="M78.8766 11.5657H75.5142L70.9493 24.6533H70.7032L66.4776 11.5657H63.1455L68.8802 27.5644H69.6421L69.5945 27.6871C69.1324 28.8203 68.4844 29.3723 67.1886 29.3723H64.2723V32.13H67.1564C69.6247 32.13 71.3196 31.1808 72.1533 29.0356L78.8766 11.5657Z" fill="#0F141E"/>
<path d="M170.227 7H167.174V10.0344H170.227V7Z" fill="#0F141E"/>
<path d="M110.009 14.2021V11.5656H105.261V7L102.393 8.18057V11.5656H99.2771V14.2021H102.207V22.8754C102.207 26.1851 104.211 27.5644 107.234 27.5644H109.826V24.8979H107.264C105.845 24.8979 105.261 24.2853 105.261 22.8441V14.2021H110.009Z" fill="#0F141E"/>
<defs>
<radialGradient id="paint0_radial_43_1142" cx="0" cy="0" r="1" gradientUnits="userSpaceOnUse" gradientTransform="translate(20.2878 2.40438) scale(15.6411 15.5453)">
<stop offset="0.15" stop-color="#004BFF"/>
<stop offset="1" stop-color="#004BFF" stop-opacity="0.1"/>
</radialGradient>
<radialGradient id="paint1_radial_43_1142" cx="0" cy="0" r="1" gradientUnits="userSpaceOnUse" gradientTransform="translate(19.9964 37.6332) rotate(-180) scale(15.6411 15.5453)">
<stop offset="0.15" stop-color="#004BFF"/>
<stop offset="1" stop-color="#004BFF" stop-opacity="0.1"/>
</radialGradient>
<radialGradient id="paint2_radial_43_1142" cx="0" cy="0" r="1" gradientUnits="userSpaceOnUse" gradientTransform="translate(37.8649 20.1635) rotate(90) scale(15.5453 15.6411)">
<stop offset="0.15" stop-color="#004BFF"/>
<stop offset="1" stop-color="#004BFF" stop-opacity="0.1"/>
</radialGradient>
<radialGradient id="paint3_radial_43_1142" cx="0" cy="0" r="1" gradientUnits="userSpaceOnUse" gradientTransform="translate(2.41908 19.8739) rotate(-90) scale(15.5453 15.6411)">
<stop offset="0.15" stop-color="#004BFF"/>
<stop offset="1" stop-color="#004BFF" stop-opacity="0.1"/>
</radialGradient>
<radialGradient id="paint4_radial_43_1142" cx="0" cy="0" r="1" gradientUnits="userSpaceOnUse" gradientTransform="translate(32.7769 7.66596) rotate(44.8241) scale(15.5933 15.593)">
<stop offset="0.15" stop-color="#004BFF"/>
<stop offset="1" stop-color="#004BFF" stop-opacity="0.1"/>
</radialGradient>
<radialGradient id="paint5_radial_43_1142" cx="0" cy="0" r="1" gradientUnits="userSpaceOnUse" gradientTransform="translate(7.50702 32.3716) rotate(-135.176) scale(15.5933 15.593)">
<stop offset="0.15" stop-color="#004BFF"/>
<stop offset="1" stop-color="#004BFF" stop-opacity="0.1"/>
</radialGradient>
<radialGradient id="paint6_radial_43_1142" cx="0" cy="0" r="1" gradientUnits="userSpaceOnUse" gradientTransform="translate(32.571 32.5764) rotate(135.176) scale(15.5933 15.593)">
<stop offset="0.15" stop-color="#004BFF"/>
<stop offset="1" stop-color="#004BFF" stop-opacity="0.1"/>
</radialGradient>
<radialGradient id="paint7_radial_43_1142" cx="0" cy="0" r="1" gradientUnits="userSpaceOnUse" gradientTransform="translate(7.71317 7.46119) rotate(-44.8241) scale(15.5933 15.593)">
<stop offset="0.15" stop-color="#004BFF"/>
<stop offset="1" stop-color="#004BFF" stop-opacity="0.1"/>
</radialGradient>
<clipPath id="clip0_43_1142">
<rect width="40.2464" height="40" fill="white"/>
</clipPath>
</defs>
</svg>
