<svg width="144" height="30" viewBox="0 0 144 30" fill="none" xmlns="http://www.w3.org/2000/svg">
<g clip-path="url(#clip0_3489_43158)">
<mask id="mask0_3489_43158" style="mask-type:luminance" maskUnits="userSpaceOnUse" x="0" y="0" width="144" height="30">
<path d="M143.333 0H0V30H143.333V0Z" fill="white"/>
</mask>
<g mask="url(#mask0_3489_43158)">
<path d="M98.0707 0C88.8047 0 82.6543 6.59518 82.6543 14.9904C82.6543 23.8667 88.8879 29.9686 98.0707 29.9686C107.077 29.9686 113.455 23.5924 113.455 14.9834C113.455 6.37605 107.077 0 98.0707 0ZM45.3171 0.0211628C42.3736 0.0211628 38.649 0.991266 35.9087 3.14777C32.6396 5.72097 30.1092 9.74711 30.1092 15.1634C30.1092 19.8337 31.6907 23.5951 34.5436 26.1429C37.3363 28.6379 41.2866 30 46.1849 30C50.1277 30 54.8901 28.576 56.9326 27.3674C57.6472 26.9447 57.8717 26.7632 57.6865 26.0724L56.4108 22.6157C56.2629 22.0488 55.6059 21.9036 55.0721 22.1574C54.1754 22.5792 53.5058 22.9111 52.5967 23.2319C50.8309 23.8565 49.0039 24.2826 47.2647 24.2826C43.6029 24.2826 41.5205 23.3302 39.9261 21.5726C38.9133 20.4565 38.3199 19.0419 38.1356 17.4073H58.3427C59.0777 17.4073 59.4054 16.921 59.4054 16.0986V14.705C59.4054 14.0261 59.3733 12.9603 59.3131 12.3229C58.9412 8.42917 57.4443 5.29657 54.9468 3.17403C52.5408 1.12615 49.3107 0.0211628 45.3171 0.0211628ZM78.2617 0.0490247C72.4269 0.0490247 68.8636 1.32975 66.5772 4.15076C64.8257 6.31406 64.5089 8.73377 64.5109 13.9107V28.1194C64.5917 29.1319 65.0174 29.6053 66.0061 29.6053H70.6223C71.6902 29.6053 72.1265 29.0725 72.1265 28.1194V13.6458C72.1265 10.3851 72.168 8.56558 73.3663 7.33497C74.3969 6.27666 75.7795 5.58429 78.6794 5.58429C79.2542 5.58429 80.6316 5.72945 81.112 5.78546C81.2941 5.80671 81.442 5.8203 81.52 5.8203C82.0202 5.8203 82.1939 5.64628 82.3545 5.03777L83.047 1.78043C83.1749 1.11252 83.0683 0.593185 82.3731 0.43533C81.3159 0.196002 79.6329 0.0490247 78.2617 0.0490247ZM1.70131 0.436134C1.19936 0.436134 0.838486 0.818959 1.04511 1.46565C2.42065 5.76594 5.90946 10.8716 9.52697 15.0624C4.91705 19.0368 1.69328 24.3231 0.0756544 28.5707C-0.162921 29.1955 0.206989 29.6037 0.570604 29.6037H6.01054C6.79366 29.6037 7.15273 29.3372 7.5119 28.576C8.98233 25.4671 11.166 21.8798 14.0297 18.9705C16.6548 21.3892 18.9518 25.0674 20.4239 28.576C20.8364 29.5459 21.3134 29.6037 21.9298 29.6037H27.861C28.9963 29.6037 29.0967 29.015 28.8926 28.5014C26.6303 22.7949 21.8173 16.9701 19.1026 14.5098C21.5885 11.9705 26.0946 7.06613 28.0635 1.46565C28.3535 0.641584 27.8177 0.436134 27.3734 0.436134H22.4068C21.8046 0.436134 21.4022 0.637343 20.957 1.46565C18.2822 6.29295 15.8743 9.13951 14.8376 10.1656C13.204 8.30948 11.056 4.97073 9.48442 1.46565C9.14298 0.705237 8.78198 0.436134 8.09111 0.436134H1.70131ZM116.057 0.436134C115.557 0.436134 115.195 0.818959 115.401 1.46565C116.776 5.76594 120.264 10.8716 123.883 15.0624C119.274 19.0368 116.05 24.3231 114.432 28.5707C114.194 29.1955 114.566 29.6037 114.928 29.6037H120.367C121.15 29.6037 121.509 29.3372 121.867 28.576C123.338 25.4671 125.521 21.8798 128.386 18.9705C131.012 21.3892 133.309 25.0674 134.779 28.576C135.195 29.5459 135.671 29.6037 136.286 29.6037H142.217C143.351 29.6037 143.453 29.015 143.249 28.5014C140.985 22.7949 136.172 16.9701 133.461 14.5098C135.945 11.9705 140.452 7.06613 142.42 1.46565C142.711 0.641584 142.175 0.436134 141.729 0.436134H136.765C136.162 0.436134 135.758 0.637343 135.313 1.46565C132.639 6.29295 130.231 9.13951 129.195 10.1656C127.56 8.30948 125.412 4.97073 123.839 1.46565C123.499 0.705237 123.136 0.436134 122.447 0.436134H116.057ZM98.075 5.48758C103.47 5.48758 105.503 9.95257 105.503 14.9853C105.503 20.0197 103.47 24.4877 98.075 24.487C92.6785 24.487 90.5998 20.0197 90.5998 14.9853C90.5998 9.95342 92.6785 5.48758 98.075 5.48758ZM45.57 5.51301C49.6062 5.51301 52.0718 8.13636 52.0718 12.0301V12.2066H38.1238C38.2737 11.2383 38.563 10.3182 39.0171 9.44491C40.2603 7.04485 42.6319 5.51301 45.57 5.51301Z" fill="#2C374F"/>
</g>
</g>
<defs>
<clipPath id="clip0_3489_43158">
<rect width="143.333" height="30" fill="white"/>
</clipPath>
</defs>
</svg>
